<svg xmlns="http://www.w3.org/2000/svg" width="29" height="28.25" viewBox="0 0 29 28.25">
  <defs>
    <style>
      .cls-1 {
        fill: #fff;
        fill-rule: evenodd;
      }
    </style>
  </defs>
  <path class="cls-1" d="M970.875,282.712v4.351h-21.75v-4.351H945.5v23.926h29V282.712h-3.625ZM955.65,302.287H951.3v-4.349h4.35v4.349Zm0-6.524H951.3v-4.35h4.35v4.35Zm6.525,6.524h-4.35v-4.349h4.35v4.349Zm0-6.524h-4.35v-4.35h4.35v4.35Zm6.525,6.524h-4.35v-4.349h4.35v4.349Zm0-6.524h-4.35v-4.35h4.35v4.35Zm-10.875-17.4h4.35v6.525h-4.35v-6.525Zm-6.525,0h4.35v6.525H951.3v-6.525Zm13.05,0h4.35v6.525h-4.35v-6.525Z" transform="translate(-945.5 -278.375)"/>
</svg>
