<svg xmlns="http://www.w3.org/2000/svg" width="17.22" height="17.219" viewBox="0 0 17.22 17.219">
  <defs>
    <style>
      .cls-1 {
        fill: #fff;
        fill-rule: evenodd;
      }
    </style>
  </defs>
  <path class="cls-1" d="M1114.09,75.8a8.222,8.222,0,0,0,.18-1.681,7.83,7.83,0,0,0-.62-3.065,8.072,8.072,0,0,0-1.68-2.521,7.985,7.985,0,0,0-2.52-1.681,7.794,7.794,0,0,0-3.07-.622,8.322,8.322,0,0,0-1.68.179,4.194,4.194,0,0,0-2.62-.9,4.3,4.3,0,0,0-3.41,6.925,8.221,8.221,0,0,0-.18,1.681,7.831,7.831,0,0,0,.62,3.064,7.934,7.934,0,0,0,1.69,2.522,7.984,7.984,0,0,0,5.58,2.3,8.167,8.167,0,0,0,1.68-.18,4.2,4.2,0,0,0,2.63.9A4.295,4.295,0,0,0,1114.09,75.8Zm-11.35.884h7.61v1.327h-7.61V76.683Zm0-2.857h7.61v1.327h-7.61V73.826Zm0-3h7.61v1.327h-7.61V70.826Z" transform="translate(-1097.78 -65.5)"/>
</svg>
