<svg xmlns="http://www.w3.org/2000/svg" width="16.32" height="16.313" viewBox="0 0 16.32 16.313">
  <defs>
    <style>
      .cls-1 {
        fill: #fff;
        fill-rule: evenodd;
      }
    </style>
  </defs>
  <path class="cls-1" d="M1401.98,66.387a5.124,5.124,0,0,0-5.13,5.132,6.36,6.36,0,0,0,.3,1.811l-6.34,6.339v3.019h3.02V80.876h1.81V79.065h1.81l2.72-2.717a5.691,5.691,0,0,0,1.81.3A5.132,5.132,0,0,0,1401.98,66.387Zm1.51,5.434a1.811,1.811,0,1,1,1.81-1.811A1.776,1.776,0,0,1,1403.49,71.82Z" transform="translate(-1390.81 -66.375)"/>
</svg>
