<svg xmlns="http://www.w3.org/2000/svg" width="12.06" height="15.656" viewBox="0 0 12.06 15.656">
  <defs>
    <style>
      .cls-1 {
        fill: #fff;
        fill-rule: evenodd;
      }
    </style>
  </defs>
  <path class="cls-1" d="M1274.17,72.009h-0.31V70.58a4.873,4.873,0,0,0-4.72-4.9c-0.07,0-.21,0-0.28,0a4.873,4.873,0,0,0-4.72,4.9v1.429h-0.31a0.989,0.989,0,0,0-.85,1.085V80.26a0.993,0.993,0,0,0,.85,1.089h10.34a0.993,0.993,0,0,0,.85-1.089V73.094A0.989,0.989,0,0,0,1274.17,72.009Zm-4.2,4.661v2.165a0.465,0.465,0,0,1-.46.458h-1.02a0.465,0.465,0,0,1-.46-0.458V76.67a1.312,1.312,0,0,1,.83-2.231c0.07,0,.21,0,0.28,0A1.312,1.312,0,0,1,1269.97,76.67Zm1.88-4.661h-5.7V70.58a2.85,2.85,0,1,1,5.7,0v1.429h0Z" transform="translate(-1262.97 -65.688)"/>
</svg>
