<svg xmlns="http://www.w3.org/2000/svg" width="29" height="29" viewBox="0 0 29 29">
  <defs>
    <style>
      .cls-1 {
        fill: #fff;
        fill-rule: evenodd;
      }
    </style>
  </defs>
  <path class="cls-1" d="M1091.07,404H1067a2.456,2.456,0,0,0-2.5,2.4v21.192a2.5,2.5,0,0,0,1.76,2.358,2.563,2.563,0,0,0,.74.109h0.73v1.253A1.693,1.693,0,0,0,1069.2,433h1.9a1.668,1.668,0,0,0,1.43-1.686v-1.253h12.94v1.253a1.719,1.719,0,0,0,1.49,1.686h1.9a1.651,1.651,0,0,0,1.41-1.686v-1.253h0.8a2.378,2.378,0,0,0,.7-0.108,2.476,2.476,0,0,0,1.73-2.359V406.4A2.4,2.4,0,0,0,1091.07,404Zm-16.87,13.063a4.884,4.884,0,0,1,.33-1.759l-2.42-1.4a0.783,0.783,0,1,1,.78-1.358l2.43,1.409a4.725,4.725,0,0,1,2.9-1.662v-2.808a0.78,0.78,0,1,1,1.56,0v2.808a4.845,4.845,0,0,1,2.94,1.662l2.45-1.409a0.786,0.786,0,0,1,.79,1.358l-2.43,1.4a4.685,4.685,0,0,1,.34,1.759,5.014,5.014,0,0,1-.29,1.653l2.38,1.375a0.783,0.783,0,0,1,.28,1.071,0.768,0.768,0,0,1-.68.392,0.8,0.8,0,0,1-.39-0.106l-2.38-1.366a4.678,4.678,0,0,1-3.01,1.75v2.742a0.78,0.78,0,1,1-1.56,0v-2.742a4.868,4.868,0,0,1-2.98-1.75l-2.36,1.367a0.742,0.742,0,0,1-.38.1,0.783,0.783,0,0,1-.39-1.463l2.38-1.375A4.769,4.769,0,0,1,1074.2,417.063Z" transform="translate(-1064.5 -404)"/>
</svg>
