<svg xmlns="http://www.w3.org/2000/svg" width="30.906" height="30.907" viewBox="0 0 30.906 30.907">
  <defs>
    <style>
      .cls-1 {
        fill: #fff;
        fill-rule: evenodd;
      }
    </style>
  </defs>
  <path class="cls-1" d="M959.832,518.789a15.446,15.446,0,1,0,15.445,15.445A15.446,15.446,0,0,0,959.832,518.789Zm4.212,21.409a4.909,4.909,0,0,1-3.292,1.5v2.185h-1.829v-2.174q-3.588-.367-4.444-4.171l2.828-.737a2.46,2.46,0,0,0,2.6,2.389,2.017,2.017,0,0,0,1.522-.511,1.727,1.727,0,0,0,.486-1.235,1.361,1.361,0,0,0-.486-1.135,8.752,8.752,0,0,0-2.165-.98,12.756,12.756,0,0,1-2.356-1.035,3.9,3.9,0,0,1-1.379-1.43,4.243,4.243,0,0,1-.529-2.145,4.757,4.757,0,0,1,.946-2.889,4.233,4.233,0,0,1,2.975-1.567v-1.687h1.829v1.687a4.425,4.425,0,0,1,3.969,3.47l-2.519,1.033q-0.738-2.127-2.279-2.127a1.667,1.667,0,0,0-1.243.475,1.58,1.58,0,0,0-.469,1.152,1.293,1.293,0,0,0,.452,1.06,7.76,7.76,0,0,0,1.935.912,17.19,17.19,0,0,1,2.554,1.124,4.011,4.011,0,0,1,1.48,1.461,4.205,4.205,0,0,1,.553,2.18A4.61,4.61,0,0,1,964.044,540.2Z" transform="translate(-944.375 -518.781)"/>
</svg>
