<svg xmlns="http://www.w3.org/2000/svg" width="28.031" height="28.031" viewBox="0 0 28.031 28.031">
  <defs>
    <style>
      .cls-1 {
        fill: #fff;
        fill-rule: evenodd;
      }
    </style>
  </defs>
  <path class="cls-1" d="M832.356,421.14V411.126a2.891,2.891,0,0,1,.239-1H828.35a1.961,1.961,0,0,0-2,2v7.009a1.961,1.961,0,0,0,2,2v10.013h6.008v-8.01A1.961,1.961,0,0,1,832.356,421.14Zm0-12.016a2.973,2.973,0,0,0,1.428-.376c0.059-.036.126-0.068,0.188-0.1A3,3,0,1,0,832.356,409.124Zm20.025,1h-4.243a2.9,2.9,0,0,1,.238,1V421.14a1.961,1.961,0,0,1-2,2v8.01h6.007V421.14a1.962,1.962,0,0,0,2-2v-7.009A1.962,1.962,0,0,0,852.381,410.125Zm-5.627-1.482c0.066,0.035.134,0.068,0.194,0.105a2.973,2.973,0,0,0,1.428.376A3.016,3.016,0,1,0,846.754,408.643Zm-6.388-5.527a3,3,0,1,1-3,3A3,3,0,0,1,840.366,403.116Zm6.008,9.012a1.962,1.962,0,0,0-2-2H836.36a1.961,1.961,0,0,0-2,2v7.009a1.961,1.961,0,0,0,2,2v10.013h8.011V421.14a1.962,1.962,0,0,0,2-2v-7.009Z" transform="translate(-826.344 -403.125)"/>
</svg>
