<svg xmlns="http://www.w3.org/2000/svg" width="29" height="24.625" viewBox="0 0 29 24.625">
  <defs>
    <style>
      .cls-1 {
        fill: #00bfc6;
        fill-rule: evenodd;
      }
    </style>
  </defs>
  <path class="cls-1" d="M1103.47,823.59v4.7a0.523,0.523,0,0,0,.52.524h3.64a0.525,0.525,0,0,0,.52-0.524v-8.269l-2.64,2.638A3.21,3.21,0,0,1,1103.47,823.59Zm6.49-3.629v8.33a0.523,0.523,0,0,0,.52.524h3.64a0.525,0.525,0,0,0,.52-0.524v-4.9a3.141,3.141,0,0,1-2.18-.929Zm6.49,2.908v5.422a0.532,0.532,0,0,0,.53.524h3.63a0.527,0.527,0,0,0,.53-0.524v-10l-4.17,4.165A2.841,2.841,0,0,1,1116.45,822.869Zm10.83-10.73-4.33,4.331v11.821a0.523,0.523,0,0,0,.52.524h3.64a0.525,0.525,0,0,0,.52-0.524V812.467c-0.12-.1-0.21-0.191-0.27-0.251Zm2.97-7.674a1,1,0,0,0-.77-0.28h-0.09c-1.69.078-3.38,0.161-5.07,0.239a1.075,1.075,0,0,0-.78.268,0.884,0.884,0,0,0,.08,1.334l0.42,0.429c0.3,0.3.59,0.6,0.89,0.888l-10.22,10.229-4.59-4.593a1.484,1.484,0,0,0-1.04-.429,1.444,1.444,0,0,0-1.03.429l-6.12,6.113a1.463,1.463,0,0,0,0,2.067l0.27,0.275a1.489,1.489,0,0,0,1.04.429,1.448,1.448,0,0,0,1.03-.429l4.81-4.809,4.59,4.594a1.475,1.475,0,0,0,2.08,0l11.53-11.535,1.3,1.3a1.022,1.022,0,0,0,.7.37,0.861,0.861,0,0,0,.42-0.113,1.092,1.092,0,0,0,.57-1.025c0.04-1.1.1-2.193,0.15-3.3l0.08-1.651A1,1,0,0,0,1130.25,804.465Z" transform="translate(-1101.5 -804.188)"/>
</svg>
