<svg xmlns="http://www.w3.org/2000/svg" width="29" height="28.062" viewBox="0 0 29 28.062">
  <defs>
    <style>
      .cls-1 {
        fill: #1ebcea;
        fill-rule: evenodd;
      }
    </style>
  </defs>
  <path class="cls-1" d="M1363,812.242v-1.406a1,1,0,0,0-.36-0.772,16.138,16.138,0,0,0-2.93-1.875,0.1,0.1,0,0,1-.05-0.083V806.13a0.923,0.923,0,0,0,.41-0.772v-2.053a1.853,1.853,0,0,0-1.85-1.851h-0.44a1.853,1.853,0,0,0-1.85,1.851v2.053a0.932,0.932,0,0,0,.42.772v1.982a0.089,0.089,0,0,1-.06.083,16.567,16.567,0,0,0-2.92,1.875,0.992,0.992,0,0,0-.36.772v1.406H1363v-0.006Zm9.14,15.126a16.078,16.078,0,0,0-2.93-1.875,0.1,0.1,0,0,1-.05-0.083v-1.982a0.923,0.923,0,0,0,.41-0.772V820.6a1.852,1.852,0,0,0-1.85-1.851h-0.44a1.852,1.852,0,0,0-1.85,1.851v2.053a0.932,0.932,0,0,0,.42.772v1.982a0.09,0.09,0,0,1-.06.083,16.5,16.5,0,0,0-2.92,1.875,0.994,0.994,0,0,0-.36.772v1.406h9.99V828.14A1,1,0,0,0,1372.14,827.368Zm-19.01,0a16.5,16.5,0,0,0-2.92-1.875,0.108,0.108,0,0,1-.06-0.083v-1.982a0.932,0.932,0,0,0,.42-0.772V820.6a1.852,1.852,0,0,0-1.85-1.851h-0.44a1.852,1.852,0,0,0-1.85,1.851v2.053a0.923,0.923,0,0,0,.41.772v1.982a0.1,0.1,0,0,1-.05.083,16.441,16.441,0,0,0-2.93,1.875,0.994,0.994,0,0,0-.36.772v1.406h9.99V828.14A1,1,0,0,0,1353.13,827.368Zm4.87-11.607a0.668,0.668,0,1,0,.67.665A0.665,0.665,0,0,0,1358,815.761Zm0,1.952a0.665,0.665,0,1,1-.66.665A0.668,0.668,0,0,1,1358,817.713Zm0,1.947a0.665,0.665,0,1,1-.66.664A0.667,0.667,0,0,1,1358,819.66Zm0-5.851a0.671,0.671,0,0,0-.47.2,0.664,0.664,0,0,0,0,.95,0.667,0.667,0,0,0,.47.2A0.671,0.671,0,1,0,1358,813.809Zm2,7.013a0.667,0.667,0,0,0-.72,1.122,0.676,0.676,0,0,0,.93-0.2A0.683,0.683,0,0,0,1360,820.822Zm1.28,0.956a0.665,0.665,0,0,1,0,1.33A0.665,0.665,0,1,1,1361.28,821.778Zm1.64,1.056a0.665,0.665,0,1,1-.67.665A0.666,0.666,0,0,1,1362.92,822.834Zm-6.92-2.012a0.68,0.68,0,0,0-.2.926,0.672,0.672,0,0,0,.93.2A0.669,0.669,0,0,0,1356,820.822Zm-1.27.956a0.665,0.665,0,1,1-.67.665A0.666,0.666,0,0,1,1354.73,821.778Zm-1.64,1.056a0.665,0.665,0,0,1,0,1.33A0.665,0.665,0,1,1,1353.09,822.834Z" transform="translate(-1343.5 -801.469)"/>
</svg>
