<svg xmlns="http://www.w3.org/2000/svg" width="28.562" height="29" viewBox="0 0 28.562 29">
  <defs>
    <style>
      .cls-1 {
        fill: #88c612;
        fill-rule: evenodd;
      }
    </style>
  </defs>
  <path class="cls-1" d="M410.934,817.262v4.212a1.286,1.286,0,0,0,.8,1.388h10.558v-6.989H411.731A1.286,1.286,0,0,0,410.934,817.262Zm4.349,0.484a1.622,1.622,0,1,1-1.622,1.621A1.622,1.622,0,0,1,415.283,817.746Zm-3.552,7.372a3.392,3.392,0,0,1-3.053-3.644v-4.212a3.392,3.392,0,0,1,3.053-3.644h10.558v-2.749a3.139,3.139,0,0,0-2.168-2.98l-1.971-5.164a1.127,1.127,0,0,0-1.526-.621l-12.2,5.631h-7.582a3.137,3.137,0,0,0-3.133,3.134v17A3.137,3.137,0,0,0,396.844,831h22.311a3.138,3.138,0,0,0,3.134-3.134v-2.748H411.731Zm4.743-20.461,1.174,3.078h-7.841Z" transform="translate(-393.719 -802)"/>
</svg>
