<svg xmlns="http://www.w3.org/2000/svg" width="15.15" height="15.156" viewBox="0 0 15.15 15.156">
  <defs>
    <style>
      .cls-1 {
        fill: #132f30;
        fill-rule: evenodd;
      }
    </style>
  </defs>
  <path class="cls-1" d="M1235.07,28.712a7.685,7.685,0,0,0,.16-1.482,6.937,6.937,0,0,0-.55-2.7,6.784,6.784,0,0,0-3.71-3.705,6.837,6.837,0,0,0-2.7-.548,7.283,7.283,0,0,0-1.48.158,3.714,3.714,0,0,0-2.31-.79,3.792,3.792,0,0,0-3.8,3.794,3.738,3.738,0,0,0,.79,2.312,7.684,7.684,0,0,0-.16,1.482,6.92,6.92,0,0,0,4.26,6.408,6.832,6.832,0,0,0,2.7.548,7.21,7.21,0,0,0,1.48-.158,3.713,3.713,0,0,0,2.31.791A3.79,3.79,0,0,0,1235.07,28.712Zm-3.12,1.467a2.56,2.56,0,0,1-.88.924,4.435,4.435,0,0,1-1.21.529,5.153,5.153,0,0,1-1.38.183,6.016,6.016,0,0,1-2.88-.647,1.852,1.852,0,0,1-1.2-1.556,1.094,1.094,0,0,1,.25-0.741,0.935,0.935,0,0,1,.75-0.3,0.975,0.975,0,0,1,.53.158,2.538,2.538,0,0,1,.45.38q0.21,0.222.45,0.445a2.045,2.045,0,0,0,.65.381,2.38,2.38,0,0,0,.9.158,1.926,1.926,0,0,0,1.04-.252,0.743,0.743,0,0,0,.39-0.638,0.649,0.649,0,0,0-.31-0.593,4.947,4.947,0,0,0-1.11-.356l-1.44-.356a5.913,5.913,0,0,1-1.02-.321,3.349,3.349,0,0,1-.79-0.479,1.763,1.763,0,0,1-.55-0.746,2.629,2.629,0,0,1-.19-1.052,2.416,2.416,0,0,1,.33-1.27,2.356,2.356,0,0,1,.88-0.86,4.49,4.49,0,0,1,1.18-.464,5.463,5.463,0,0,1,1.3-.153,6.916,6.916,0,0,1,1.8.227,3.7,3.7,0,0,1,1.4.667,1.259,1.259,0,0,1,.56.983,1.14,1.14,0,0,1-.28.761,0.962,0.962,0,0,1-.75.316,0.949,0.949,0,0,1-.47-0.119,1.83,1.83,0,0,1-.4-0.287c-0.12-.112-0.24-0.222-0.38-0.331a1.76,1.76,0,0,0-.53-0.282,2.273,2.273,0,0,0-.76-0.119c-0.95,0-1.42.254-1.42,0.761a0.575,0.575,0,0,0,.07.3,1.124,1.124,0,0,0,.16.207,1,1,0,0,0,.3.158,2.787,2.787,0,0,0,.35.114c0.09,0.023.23,0.058,0.43,0.1l1.03,0.237c0.32,0.073.61,0.148,0.86,0.227a5.267,5.267,0,0,1,.82.336,3.011,3.011,0,0,1,.72.484,2.219,2.219,0,0,1,.48.677,2.076,2.076,0,0,1,.19.9A2.672,2.672,0,0,1,1231.95,30.179Z" transform="translate(-1220.69 -19.656)"/>
</svg>
