<svg xmlns="http://www.w3.org/2000/svg" width="29" height="29" viewBox="0 0 29 29">
  <defs>
    <style>
      .cls-1 {
        fill: #00b998;
        fill-rule: evenodd;
      }
    </style>
  </defs>
  <path class="cls-1" d="M658.934,819.2a0.7,0.7,0,0,1,0-1.406h0.742a10.651,10.651,0,0,0-2.662-6.378l-0.511.511a0.7,0.7,0,1,1-.993-0.993l0.507-.508a10.66,10.66,0,0,0-6.314-2.605v0.743a0.7,0.7,0,0,1-1.406,0v-0.743a10.649,10.649,0,0,0-6.332,2.622L642.516,811a0.7,0.7,0,0,1-.994.994l-0.552-.553a10.65,10.65,0,0,0-2.646,6.359h0.829a0.7,0.7,0,0,1,0,1.406h-0.829a10.66,10.66,0,0,0,2.605,6.314l0.593-.594a0.7,0.7,0,1,1,.994.993l-0.6.6a10.651,10.651,0,0,0,6.378,2.662v-0.828a0.7,0.7,0,1,1,1.4,0v0.828a10.656,10.656,0,0,0,6.361-2.646l-0.553-.552a0.7,0.7,0,1,1,.993-0.994l0.552,0.551a10.654,10.654,0,0,0,2.621-6.332h-0.742Zm-5.212,0H649a0.7,0.7,0,0,1-.7-0.7v-6.795a0.7,0.7,0,0,1,1.406,0V817.8h4.019A0.7,0.7,0,0,1,653.722,819.2ZM649,804a14.5,14.5,0,1,0,14.5,14.5A14.517,14.517,0,0,0,649,804Zm0,26.6a12.1,12.1,0,1,1,12.1-12.1A12.118,12.118,0,0,1,649,830.6Z" transform="translate(-634.5 -804)"/>
</svg>
